<svg width="888" height="581" viewBox="0 0 888 581" fill="none" xmlns="http://www.w3.org/2000/svg">
<path d="M232.078 354.086C325.38 354.086 401.016 274.821 401.016 177.043C401.016 79.2648 325.38 0 232.078 0C138.777 0 63.1406 79.2648 63.1406 177.043C63.1406 274.821 138.777 354.086 232.078 354.086Z" fill="#F2F2F2"/>
<path d="M0 42.5089C0 106.924 38.5607 159.048 86.2142 159.048Z" fill="#2F2E41"/>
<path d="M86.2142 159.048C86.2142 93.9091 129.246 41.1995 182.424 41.1995Z" fill="#FF4C29"/>
<path d="M31.2371 48.3483C31.2371 109.536 55.8265 159.048 86.2142 159.048Z" fill="#FF4C29"/>
<path d="M86.2142 159.048C86.2142 75.8149 135.952 8.46368 197.418 8.46368Z" fill="#2F2E41"/>
<path d="M68.077 159.87C68.077 159.87 80.3036 159.475 83.9884 156.725C87.6732 153.976 102.796 150.692 103.71 155.102C104.624 159.512 122.084 177.036 108.281 177.153C94.4769 177.269 76.2068 174.899 72.5291 172.551C68.8514 170.204 68.077 159.87 68.077 159.87Z" fill="#A8A8A8"/>
<path opacity="0.2" d="M108.527 175.617C94.7232 175.734 76.4532 173.364 72.7755 171.016C69.9747 169.228 68.8586 162.813 68.4852 159.853C68.2266 159.865 68.077 159.87 68.077 159.87C68.077 159.87 68.8514 170.204 72.5291 172.551C76.2068 174.899 94.4769 177.269 108.281 177.152C112.265 177.119 113.642 175.633 113.566 173.433C113.012 174.762 111.493 175.592 108.527 175.617Z" fill="black"/>
<path d="M157.524 373.984C239.436 373.984 305.84 364.517 305.84 352.839C305.84 341.161 239.436 331.694 157.524 331.694C75.6109 331.694 9.20752 341.161 9.20752 352.839C9.20752 364.517 75.6109 373.984 157.524 373.984Z" fill="#3F3D56"/>
<path opacity="0.1" d="M157.524 370.592C226.295 370.592 282.046 362.644 282.046 352.839C282.046 343.034 226.295 335.086 157.524 335.086C88.752 335.086 33.0016 343.034 33.0016 352.839C33.0016 362.644 88.752 370.592 157.524 370.592Z" fill="black"/>
<path d="M663.543 581C787.507 581 888 566.673 888 548.999C888 531.326 787.507 516.999 663.543 516.999C539.579 516.999 439.086 531.326 439.086 548.999C439.086 566.673 539.579 581 663.543 581Z" fill="#3F3D56"/>
<path d="M246.355 555.754C320.821 555.754 381.187 547.148 381.187 536.531C381.187 525.915 320.821 517.308 246.355 517.308C171.889 517.308 111.522 525.915 111.522 536.531C111.522 547.148 171.889 555.754 246.355 555.754Z" fill="#3F3D56"/>
<path d="M366.911 520.323C438.293 539.441 575.505 495.388 590.575 445.516" stroke="#2F2E41" stroke-width="2" stroke-miterlimit="10"/>
<path d="M245.561 215.278C245.561 215.278 348.669 185.355 355.014 281.773C361.359 378.19 270.149 405.619 341.531 424.737" stroke="#2F2E41" stroke-width="2" stroke-miterlimit="10"/>
<path d="M145.946 446.583C145.946 446.583 176.935 437.59 178.842 466.569C180.749 495.548 153.336 503.792 174.79 509.537" stroke="#2F2E41" stroke-width="2" stroke-miterlimit="10"/>
<path d="M617.617 468.158L611.369 509.963C611.369 509.963 580.61 527.087 602.238 527.591C623.865 528.095 725.755 527.591 725.755 527.591C725.755 527.591 745.46 527.591 714.22 509.459L707.972 465.64L617.617 468.158Z" fill="#2F2E41"/>
<path opacity="0.1" d="M597.887 527.138C602.799 522.557 611.369 517.785 611.369 517.785L617.617 475.98L707.972 476.069L714.22 517.281C721.505 521.51 726.018 524.751 728.658 527.237C732.67 526.278 737.055 522.713 714.22 509.459L707.972 465.64L617.617 468.158L611.369 509.963C611.369 509.963 585.522 524.354 597.887 527.138Z" fill="black"/>
<path d="M851.541 176.784H473.087C465.183 176.784 458.775 183.499 458.775 191.783V458.951C458.775 467.235 465.183 473.95 473.087 473.95H851.541C859.445 473.95 865.853 467.235 865.853 458.951V191.783C865.853 183.499 859.445 176.784 851.541 176.784Z" fill="#2F2E41"/>
<path d="M852.156 192.65H472.472V415.272H852.156V192.65Z" fill="#3F3D56"/>
<path d="M662.314 188.117C663.641 188.117 664.717 186.989 664.717 185.598C664.717 184.207 663.641 183.08 662.314 183.08C660.987 183.08 659.911 184.207 659.911 185.598C659.911 186.989 660.987 188.117 662.314 188.117Z" fill="#F2F2F2"/>
<path d="M865.853 432.901V458.951C865.853 460.921 865.483 462.871 864.764 464.691C864.045 466.511 862.991 468.165 861.662 469.557C860.333 470.95 858.755 472.055 857.018 472.809C855.282 473.563 853.42 473.95 851.541 473.95H473.087C471.208 473.95 469.347 473.563 467.61 472.809C465.873 472.055 464.295 470.95 462.966 469.557C461.637 468.165 460.583 466.511 459.864 464.691C459.145 462.871 458.775 460.921 458.775 458.951V432.901H865.853Z" fill="#2F2E41"/>
<path d="M768.529 554.789V559.826H509.96V555.797L510.316 554.789L516.689 536.657H763.242L768.529 554.789Z" fill="#2F2E41"/>
<path d="M868.035 549.858C867.564 551.969 865.786 554.195 861.768 556.3C847.35 563.855 818.032 554.286 818.032 554.286C818.032 554.286 795.444 550.256 795.444 539.679C796.078 539.224 796.739 538.812 797.424 538.445C803.486 535.084 823.585 526.791 859.223 538.796C861.848 539.66 864.194 541.271 865.997 543.449C867.441 545.22 868.574 547.467 868.035 549.858Z" fill="#2F2E41"/>
<path opacity="0.1" d="M868.035 549.858C850.387 556.945 834.657 557.474 818.513 545.723C810.371 539.8 802.975 538.334 797.424 538.445C803.486 535.084 823.585 526.791 859.223 538.796C861.848 539.66 864.194 541.271 865.997 543.449C867.441 545.22 868.574 547.467 868.035 549.858Z" fill="black"/>
<path d="M845.908 545.723C849.358 545.723 852.156 544.821 852.156 543.709C852.156 542.596 849.358 541.694 845.908 541.694C842.457 541.694 839.66 542.596 839.66 543.709C839.66 544.821 842.457 545.723 845.908 545.723Z" fill="#F2F2F2"/>
<path d="M662.314 463.121C667.357 463.121 671.446 458.837 671.446 453.551C671.446 448.266 667.357 443.982 662.314 443.982C657.271 443.982 653.182 448.266 653.182 453.551C653.182 458.837 657.271 463.121 662.314 463.121Z" fill="#F2F2F2"/>
<path opacity="0.1" d="M768.529 554.789V559.826H509.96V555.797L510.316 554.789H768.529Z" fill="black"/>
<path d="M251.113 132.159H86.1416V333.306H251.113V132.159Z" fill="#2F2E41"/>
<path d="M267.769 112.21H69.4857V183.692H267.769V112.21Z" fill="#3F3D56"/>
<path d="M267.769 196.991H69.4857V268.474H267.769V196.991Z" fill="#3F3D56"/>
<path d="M267.769 281.773H69.4857V353.255H267.769V281.773Z" fill="#3F3D56"/>
<path opacity="0.4" d="M228.113 124.678H215.422V137.977H228.113V124.678Z" fill="#FF4C29"/>
<path opacity="0.8" d="M246.355 124.678H233.664V137.977H246.355V124.678Z" fill="#FF4C29"/>
<path d="M264.597 124.678H251.907V137.977H264.597V124.678Z" fill="#FF4C29"/>
<path opacity="0.4" d="M228.113 208.628H215.422V221.927H228.113V208.628Z" fill="#FF4C29"/>
<path opacity="0.8" d="M246.355 208.628H233.664V221.927H246.355V208.628Z" fill="#FF4C29"/>
<path d="M264.597 208.628H251.907V221.927H264.597V208.628Z" fill="#FF4C29"/>
<path opacity="0.4" d="M228.113 292.578H215.422V305.877H228.113V292.578Z" fill="#FF4C29"/>
<path opacity="0.8" d="M246.355 292.578H233.664V305.877H246.355V292.578Z" fill="#FF4C29"/>
<path d="M264.597 292.578H251.907V305.877H264.597V292.578Z" fill="#FF4C29"/>
<path d="M251.113 512.843C285.718 512.843 313.771 483.444 313.771 447.179C313.771 410.914 285.718 381.515 251.113 381.515C216.509 381.515 188.456 410.914 188.456 447.179C188.456 483.444 216.509 512.843 251.113 512.843Z" fill="#2F2E41"/>
<path d="M241.596 498.712H222.561V534.453H241.596V498.712Z" fill="#2F2E41"/>
<path d="M279.666 498.712H260.631V534.453H279.666V498.712Z" fill="#2F2E41"/>
<path d="M238.423 541.103C247.184 541.103 254.286 538.312 254.286 534.869C254.286 531.426 247.184 528.635 238.423 528.635C229.663 528.635 222.561 531.426 222.561 534.869C222.561 538.312 229.663 541.103 238.423 541.103Z" fill="#2F2E41"/>
<path d="M276.494 540.272C285.254 540.272 292.356 537.481 292.356 534.038C292.356 530.595 285.254 527.804 276.494 527.804C267.733 527.804 260.631 530.595 260.631 534.038C260.631 537.481 267.733 540.272 276.494 540.272Z" fill="#2F2E41"/>
<path d="M252.7 452.997C264.527 452.997 274.114 442.95 274.114 430.555C274.114 418.161 264.527 408.113 252.7 408.113C240.873 408.113 231.285 418.161 231.285 430.555C231.285 442.95 240.873 452.997 252.7 452.997Z" fill="white"/>
<path d="M252.7 438.036C256.642 438.036 259.838 434.687 259.838 430.555C259.838 426.424 256.642 423.074 252.7 423.074C248.757 423.074 245.561 426.424 245.561 430.555C245.561 434.687 248.757 438.036 252.7 438.036Z" fill="#3F3D56"/>
<path d="M190.333 386.113C185.274 362.368 201.447 338.375 226.456 332.523C251.465 326.67 275.84 341.175 280.9 364.92C285.959 388.665 269.385 397.423 244.375 403.275C219.366 409.128 195.393 409.858 190.333 386.113Z" fill="#FF4C29"/>
<path d="M309.88 434.082C325.787 426.948 336.949 416.921 334.812 411.688C332.675 406.455 318.047 407.996 302.14 415.131C286.234 422.266 275.071 432.292 277.209 437.525C279.346 442.759 293.973 441.217 309.88 434.082Z" fill="#2F2E41"/>
<path d="M192.496 478.135C208.403 471 219.565 460.974 217.428 455.741C215.291 450.508 200.663 452.049 184.757 459.184C168.85 466.319 157.688 476.345 159.825 481.578C161.962 486.812 176.59 485.27 192.496 478.135Z" fill="#2F2E41"/>
<path d="M287.598 466.296C287.598 472.723 271.807 485.413 254.286 485.413C236.765 485.413 220.181 473.554 220.181 467.127C220.181 460.701 236.765 462.14 254.286 462.14C271.807 462.14 287.598 459.869 287.598 466.296Z" fill="white"/>
</svg>
